<?xml version="1.0" standalone="no"?>
<!DOCTYPE svg PUBLIC "-//W3C//DTD SVG 20010904//EN"
 "http://www.w3.org/TR/2001/REC-SVG-20010904/DTD/svg10.dtd">
<svg version="1.0" xmlns="http://www.w3.org/2000/svg"
 width="91.000000pt" height="27.000000pt" viewBox="0 0 91.000000 27.000000"
 preserveAspectRatio="xMidYMid meet">

<g transform="translate(0.000000,27.000000) scale(0.100000,-0.100000)"
fill="#000000" stroke="none">
<path d="M590 251 c14 -27 13 -81 -2 -81 -9 0 -9 -3 0 -12 17 -17 15 -54 -4
-72 -14 -15 -13 -16 13 -16 l28 0 -3 100 c-3 92 -5 100 -23 100 -16 0 -18 -3
-9 -19z"/>
<path d="M707 252 c-10 -10 -17 -30 -17 -43 0 -14 -5 -30 -12 -37 -9 -9 -9
-12 1 -12 10 0 12 -12 9 -45 -5 -37 -3 -45 11 -45 13 0 15 9 13 44 -3 36 -1
45 15 49 17 4 17 5 0 6 -15 1 -18 8 -15 43 2 31 8 44 21 46 10 2 17 -3 17 -13
0 -9 5 -13 10 -10 8 5 7 11 -1 21 -16 19 -33 18 -52 -4z"/>
<path d="M28 169 c3 -60 0 -84 -10 -90 -8 -6 1 -9 25 -9 34 0 37 2 23 15 -18
18 -20 146 -2 157 6 5 0 8 -14 8 -25 0 -25 0 -22 -81z"/>
<path d="M100 243 c14 -3 32 -11 40 -19 14 -11 16 -11 16 6 0 17 -7 20 -41 19
-27 -1 -32 -3 -15 -6z"/>
<path d="M110 191 c0 -5 -7 -11 -15 -13 -13 -2 -12 -6 5 -20 19 -17 20 -17 20
12 0 17 -2 30 -5 30 -3 0 -5 -4 -5 -9z"/>
<path d="M259 163 c26 -21 32 -70 10 -84 -9 -6 -10 -9 -2 -9 17 0 43 29 43 49
0 24 -21 48 -50 56 l-25 8 24 -20z"/>
<path d="M372 164 c-40 -28 -24 -94 22 -94 19 0 19 1 -2 16 -27 19 -27 61 0
77 35 23 68 -49 36 -81 -8 -8 -8 -12 -1 -12 12 0 27 17 36 43 5 12 -2 26 -18
43 -28 28 -42 30 -73 8z"/>
<path d="M200 151 c-5 -11 -10 -26 -10 -35 0 -19 27 -46 48 -46 14 0 14 1 0
13 -21 16 -27 38 -17 65 10 27 -6 30 -21 3z"/>
<path d="M516 154 c-29 -28 -11 -84 26 -84 19 0 20 1 6 13 -21 16 -27 38 -17
65 10 26 6 28 -15 6z"/>
<path d="M780 165 c0 -3 9 -24 21 -47 11 -22 19 -51 16 -64 -6 -31 -1 -30 17
3 12 24 12 30 -1 41 -7 8 -16 27 -20 43 -3 16 -12 29 -19 29 -8 0 -14 -2 -14
-5z"/>
<path d="M867 148 c-8 -30 -5 -30 16 -2 14 19 15 24 4 24 -8 0 -17 -10 -20
-22z"/>
<path d="M750 25 c0 -21 25 -29 47 -15 16 10 15 10 -4 5 -17 -5 -23 -2 -23 9
0 9 -4 16 -10 16 -5 0 -10 -7 -10 -15z"/>
</g>
</svg>
